<svg width="295.16" height="112.102" xmlns="http://www.w3.org/2000/svg" xmlns:svg="http://www.w3.org/2000/svg">
 <defs>
  <style>.a{fill:#fff;}.b{fill:#00adee;}</style>
 </defs>
 <g>
  <title>Layer 1</title>
  <path fill="black" class="a" d="m149.143,33.804c-0.606,-10.106 3.651,-18.146 8.377,-23.857a26.392,26.392 0 1 0 3.2,47.148c-5.425,-4.973 -10.938,-12.592 -11.577,-23.291zm-10.6,15c-2.645,-1.412 -8.818,-5.566 -9.3,-13.73a15.156,15.156 0 0 1 2.17,-8.825a20.2,20.2 0 0 1 6.958,-6.82s-7.578,5.759 -6.985,15.679a18.159,18.159 0 0 0 8.005,14.054l0.344,0.22s-0.453,-0.181 -1.187,-0.574l-0.005,-0.004zm-0.475,-13.709c-0.923,-15.445 14.116,-24.111 14.116,-24.111a28.024,28.024 0 0 0 -10.774,24.174c0.964,16.175 12.779,21.783 12.779,21.783s-15.193,-6.404 -16.117,-21.842l-0.004,-0.004z" id="svg_2"/>
  <path class="a" d="m162.956,55.711a26.357,26.357 0 0 0 -2.6,-44.234a35.177,35.177 0 0 1 8.6,-11.477a39.44,39.44 0 0 0 -15.156,34.039c1.378,22.747 18,30.635 18,30.635a29.456,29.456 0 0 1 -8.844,-8.963z" id="svg_3"/>
  <text style="cursor: move;" transform="matrix(1.3690225104655838,0,0,1.4121308111498365,-50.49344575080295,-38.16354212435863) " xml:space="preserve" text-anchor="middle" font-family="serif" font-size="24" id="svg_1" y="96.957245" x="146.232227" stroke-linecap="null" stroke-linejoin="null" stroke-dasharray="null" stroke-width="0" fill="#ffffff">ALLY</text>
  <ellipse ry="1" id="svg_5" cy="197.957245" cx="422.579987" stroke-linecap="null" stroke-linejoin="null" stroke-dasharray="null" stroke-width="null" fill="#00ffff"/>
 </g>
</svg>