<svg xmlns="http://www.w3.org/2000/svg" width="24.063" height="32" viewBox="0 0 24.063 32">
  <path id="audit" d="M20.813,2.5H16.1a3.75,3.75,0,0,0-7.072,0H4.25A3.754,3.754,0,0,0,.5,6.25v22A3.754,3.754,0,0,0,4.25,32H20.816a3.755,3.755,0,0,0,3.746-3.75v-22a3.754,3.754,0,0,0-3.75-3.75ZM11.313,5V3.75a1.25,1.25,0,0,1,2.5,0V5h2.5V7.438h-7.5V5Zm10.75,23.25a1.252,1.252,0,0,1-1.247,1.25H4.25A1.251,1.251,0,0,1,3,28.25v-22A1.251,1.251,0,0,1,4.25,5H6.313V9.938h12.5V5h2a1.251,1.251,0,0,1,1.25,1.25ZM17.325,14.377l1.849,1.683-8.006,8.8L5.881,19.742l1.738-1.8,3.435,3.323Zm0,0" transform="translate(-0.5)" fill="#fff"/>
</svg>
