<svg xmlns="http://www.w3.org/2000/svg" width="25.895" height="25.926" viewBox="0 0 25.895 25.926">
  <g id="Group_19" data-name="Group 19" transform="translate(-246.105 -93.653)">
    <g id="arrow-pointing-to-right" transform="translate(246.105 51.737)">
      <path id="Path_11" data-name="Path 11" d="M25.542,48.962l-7.706-6.737a1.33,1.33,0,0,0-1.7,0,.962.962,0,0,0,0,1.489l5.65,4.94H1.2a1.062,1.062,0,1,0,0,2.105h20.58l-5.65,4.94a.962.962,0,0,0,0,1.489,1.33,1.33,0,0,0,1.7,0l7.706-6.737A.962.962,0,0,0,25.542,48.962Z" transform="translate(0 0)" fill="#fff"/>
    </g>
    <g id="arrow-pointing-to-right-2" data-name="arrow-pointing-to-right" transform="translate(246.105 104)">
      <path id="Path_11-2" data-name="Path 11" d="M.353,48.962l7.706-6.737a1.33,1.33,0,0,1,1.7,0,.962.962,0,0,1,0,1.489l-5.65,4.94h20.58a1.062,1.062,0,1,1,0,2.105H4.111l5.65,4.94a.962.962,0,0,1,0,1.489,1.33,1.33,0,0,1-1.7,0L.353,50.45A.962.962,0,0,1,.353,48.962Z" transform="translate(0 -41.916)" fill="#fff"/>
    </g>
  </g>
</svg>
