<svg xmlns="http://www.w3.org/2000/svg" width="32.771" height="35" viewBox="0 0 32.771 35">
  <g id="visibility" transform="translate(-16.303)">
    <g id="Group_21" data-name="Group 21" transform="translate(16.303 8.135)">
      <g id="Group_20" data-name="Group 20">
        <path id="Path_12" data-name="Path 12" d="M48.511,126.73a.835.835,0,0,0-1.317,1.027.986.986,0,0,1,0,1.214,18.343,18.343,0,0,1-7.662,5.777A9.345,9.345,0,0,0,39.554,122a18.327,18.327,0,0,1,4.783,2.828c.18.147.359.3.533.454a.835.835,0,1,0,1.107-1.25c-.19-.168-.385-.334-.581-.495a20.057,20.057,0,0,0-28.53,3.192,2.654,2.654,0,0,0,0,3.269,20.057,20.057,0,0,0,31.645,0A2.654,2.654,0,0,0,48.511,126.73Zm-30.328,2.242a.986.986,0,0,1,0-1.214,18.342,18.342,0,0,1,7.66-5.777,9.346,9.346,0,0,0,0,12.768A18.342,18.342,0,0,1,18.183,128.971ZM32.7,136.059h-.02a7.7,7.7,0,0,1,0-15.39H32.7a7.7,7.7,0,0,1,0,15.39Z" transform="translate(-16.303 -118.999)" fill="#fff"/>
      </g>
    </g>
    <g id="Group_23" data-name="Group 23" transform="translate(29.145 13.956)">
      <g id="Group_22" data-name="Group 22">
        <path id="Path_13" data-name="Path 13" d="M207.7,204.16a3.544,3.544,0,1,0,3.544,3.544A3.548,3.548,0,0,0,207.7,204.16Zm0,5.417a1.873,1.873,0,1,1,1.873-1.873A1.876,1.876,0,0,1,207.7,209.577Z" transform="translate(-204.161 -204.16)" fill="#fff"/>
      </g>
    </g>
    <g id="Group_25" data-name="Group 25" transform="translate(31.853)">
      <g id="Group_24" data-name="Group 24">
        <path id="Path_14" data-name="Path 14" d="M244.619,0a.835.835,0,0,0-.835.835V3.967a.835.835,0,0,0,1.67,0V.835A.835.835,0,0,0,244.619,0Z" transform="translate(-243.784 0)" fill="#fff"/>
      </g>
    </g>
    <g id="Group_27" data-name="Group 27" transform="translate(31.853 30.198)">
      <g id="Group_26" data-name="Group 26">
        <path id="Path_15" data-name="Path 15" d="M244.619,441.753a.835.835,0,0,0-.835.835v3.132a.835.835,0,0,0,1.67,0v-3.132A.835.835,0,0,0,244.619,441.753Z" transform="translate(-243.784 -441.753)" fill="#fff"/>
      </g>
    </g>
    <g id="Group_29" data-name="Group 29" transform="translate(42.079 4.881)">
      <g id="Group_28" data-name="Group 28">
        <path id="Path_16" data-name="Path 16" d="M396.353,71.647a.835.835,0,0,0-1.181,0l-1.558,1.558a.835.835,0,0,0,1.181,1.181l1.558-1.558A.835.835,0,0,0,396.353,71.647Z" transform="translate(-393.369 -71.403)" fill="#fff"/>
      </g>
    </g>
    <g id="Group_31" data-name="Group 31" transform="translate(20.069 26.89)">
      <g id="Group_30" data-name="Group 30">
        <path id="Path_17" data-name="Path 17" d="M74.387,393.613a.835.835,0,0,0-1.181,0l-1.558,1.558a.835.835,0,0,0,1.181,1.181l1.558-1.558A.835.835,0,0,0,74.387,393.613Z" transform="translate(-71.403 -393.369)" fill="#fff"/>
      </g>
    </g>
    <g id="Group_33" data-name="Group 33" transform="translate(20.069 4.881)">
      <g id="Group_32" data-name="Group 32">
        <path id="Path_18" data-name="Path 18" d="M74.387,73.205l-1.558-1.558a.835.835,0,0,0-1.181,1.181l1.558,1.558a.835.835,0,1,0,1.181-1.181Z" transform="translate(-71.403 -71.403)" fill="#fff"/>
      </g>
    </g>
    <g id="Group_35" data-name="Group 35" transform="translate(42.079 26.89)">
      <g id="Group_34" data-name="Group 34">
        <path id="Path_19" data-name="Path 19" d="M396.351,395.171l-1.558-1.558a.835.835,0,1,0-1.181,1.181l1.558,1.558a.835.835,0,1,0,1.181-1.181Z" transform="translate(-393.367 -393.368)" fill="#fff"/>
      </g>
    </g>
  </g>
</svg>
